<?xml version="1.0" standalone="no"?>
<svg width="24" height="24" viewBox="0 0 1174 1174" version="1.1" xmlns="http://www.w3.org/2000/svg">
  <defs>
    <style type="text/css">
      <![CDATA[
       #cog-path {
         fill: white;
       }
    ]]>
    </style>
  </defs> 
  <path id="cog-path" d="M600 1174q33 0 74 -5l38 -152l5 -1q49 -14 94 -39l5 -2l134 80q61 -48 104 -105l-80 -134l3 -5q25 -44 39 -93l1 -6l152 -38q5 -43 5 -73q0 -34 -5 -74l-152 -38l-1 -6q-15 -49 -39 -93l-3 -5l80 -134q-48 -61 -104 -105l-134 81l-5 -3q-44 -25 -94 -39l-5 -2l-38 -151 q-43 -5 -74 -5q-33 0 -74 5l-38 151l-5 2q-49 14 -94 39l-5 3l-134 -81q-60 48 -104 105l80 134l-3 5q-25 45 -38 93l-2 6l-151 38q-6 42 -6 74q0 33 6 73l151 38l2 6q13 48 38 93l3 5l-80 134q47 61 105 105l133 -80l5 2q45 25 94 39l5 1l38 152q43 5 74 5zM600 815 q-89 0 -152 -63t-63 -151.5t63 -151.5t152 -63t152 63t63 151.5t-63 151.5t-152 63z"></path>
</svg>